<svg xmlns="http://www.w3.org/2000/svg" viewBox="0 0 106.72 91.73"><defs><style>.cls-1{fill:#ee3230;}</style></defs><title>Asset 3</title><g id="Layer_2" data-name="Layer 2"><g id="Layer_1-2" data-name="Layer 1"><path class="cls-1" d="M40.29,20.09v.18c2.12,0,4.24,0,6.36,0a1.58,1.58,0,1,0,.07-3.15c-.31,0-.62,0-.93,0-3.51,0-7,0-10.53,0a7.16,7.16,0,0,1-6-2.68A1.54,1.54,0,0,0,26.88,14c-.74.62-.78,1.46-.06,2.4a8.59,8.59,0,0,0,6,3.6C35.28,20.27,37.79,20.09,40.29,20.09Zm26.08.18c1.94,0,3.89.05,5.83,0a9.7,9.7,0,0,0,7.73-3.87A1.57,1.57,0,0,0,79.8,14a1.52,1.52,0,0,0-2.28.37,7.26,7.26,0,0,1-6.22,2.74c-3.54-.06-7.09,0-10.63,0-1.55,0-2.33.56-2.3,1.63s.77,1.55,2.27,1.56Z"/><path class="cls-1" d="M0,63.87A3.38,3.38,0,0,1,3.48,62c4.1.07,8.2,0,12.3,0H17a24.71,24.71,0,0,1,0-2.87,3.57,3.57,0,0,1,.68-1.89,1.5,1.5,0,0,0,.41-1.52c-.95-4.3-1.84-8.61-2.79-12.9a3.25,3.25,0,0,0-.64-1.27A20.7,20.7,0,0,1,10,28.21c0-3.55-.08-7.09,0-10.63A11.33,11.33,0,0,1,13.84,9a9.85,9.85,0,0,1,4.64-2C28.71,4.88,39,2.88,49.15.43,53-.5,56.4.25,60,1s6.91,1.45,10.36,2.22a2.57,2.57,0,0,1,1.5.76,2.12,2.12,0,0,1,.09,1.71,1.4,1.4,0,0,1-1.76.73L58.48,4c-1.25-.27-2.49-.59-3.74-.89-1.81-.42-3.5.24-5.21.61Q34.08,7,18.64,10.27a6.4,6.4,0,0,0-5.29,6,53.52,53.52,0,0,0-.21,6.34,57.65,57.65,0,0,0,.43,9.12A17.22,17.22,0,0,0,29.38,46c1.39.12,2.13,1.12,1.65,2.22a1.55,1.55,0,0,1-1.7.92,20.4,20.4,0,0,1-9.4-3c-.15-.09-.3-.16-.46-.24s-.06,0-.2,0l1.44,6.79,0,.1c.36,1.52.36,3.26,1.16,4.48s2.39,1.95,3.64,2.89c2.22,1.66,4.46,3.31,6.68,5a2.62,2.62,0,0,1,0,4.52c-2,1.52-4,3-6,4.48a1.22,1.22,0,0,0-.61,1.45c.76,3.34,1.44,6.7,2.19,10a3.32,3.32,0,0,0,3.69,2.93h7.24c-2.1-4-1.62-7.38,1.55-10.38a7.74,7.74,0,0,1,.79-12.54c-.16-.18-.3-.36-.47-.52a10.18,10.18,0,0,1-3.12-8.79,1.46,1.46,0,0,1,1.61-1.42,1.56,1.56,0,0,1,1.51,1.55,22.9,22.9,0,0,0,.22,3,6.51,6.51,0,0,0,6.29,5.1c1.49,0,3,0,4.63,0V52.31a5.11,5.11,0,0,1,0-1,1.57,1.57,0,0,1,3.1-.05A6.18,6.18,0,0,1,55,52.36c0,4,0,8,0,12.16,2.37-.15,4.75.45,7-.51a6.41,6.41,0,0,0,4.11-6c0-.48,0-1,0-1.45a1.58,1.58,0,0,1,1.57-1.71c.94,0,1.51.6,1.58,1.68a10.14,10.14,0,0,1-3.42,8.77,1.32,1.32,0,0,0-.16.25c4.65,3.36,4.65,9.11.74,12.56,3.15,3,3.69,6.4,1.55,10.39h2.62c1.6,0,3.2,0,4.8,0a3.19,3.19,0,0,0,3.44-2.69c.8-3.48,1.51-7,2.29-10.46a1,1,0,0,0-.5-1.19c-2-1.43-3.91-2.9-5.86-4.35s-2.09-3.37,0-4.9c3.19-2.39,6.4-4.77,9.59-7.17.29-.21.66-.5.73-.81.84-3.71,1.64-7.43,2.47-11.28-1.15.6-2.13,1.16-3.15,1.64a17.68,17.68,0,0,1-7.11,1.77q-6,.12-12,0a13.12,13.12,0,0,1-8.35-3.3c-1.15-1-2.32-1.87-3.55-2.86-1.15.93-2.31,1.81-3.41,2.75a14.23,14.23,0,0,1-9.77,3.48c-1,0-2,0-3,0s-1.84-.66-1.85-1.57S36.05,46,37.21,46c1.87-.06,3.75,0,5.61-.21a8.83,8.83,0,0,0,4.58-2.09c1.23-1,2.42-2,3.67-2.92a1.61,1.61,0,0,0,.69-1.49c0-4.55,0-9.1,0-13.65a5.67,5.67,0,0,1,.11-1.24,1.43,1.43,0,0,1,1.53-1.15,1.4,1.4,0,0,1,1.45,1.11A5.12,5.12,0,0,1,55,25.58c0,4.55,0,9.1,0,13.65a1.73,1.73,0,0,0,.75,1.57c1.25.93,2.43,2,3.66,2.92A10.06,10.06,0,0,0,65.71,46c3.26,0,6.54.14,9.79,0,9.13-.48,15.79-5.17,17.78-14.67a15.1,15.1,0,0,0,.29-3c0-3.33.12-6.67,0-10a15.07,15.07,0,0,0-1-4.72,5.32,5.32,0,0,0-4.25-3.29c-3.5-.69-7-1.47-10.46-2.23-1.23-.27-1.73-.93-1.53-1.93s1-1.39,2.19-1.15c3.59.76,7.19,1.51,10.78,2.3,3.89.85,6,3.52,7,7.18a14.73,14.73,0,0,1,.45,3.5c0,3.54,0,7.08,0,10.63a18.7,18.7,0,0,1-3.5,11.13,14.6,14.6,0,0,0-2.49,5.92c-.67,3.47-1.46,6.92-2.18,10.38a1.07,1.07,0,0,0,.15.88,3,3,0,0,1,1,2.52c0,.83,0,1.66,0,2.61H103.6c2.14,0,3.11,1,3.11,3.12,0,1.6,0,3.2,0,4.79a2.55,2.55,0,0,1-2.64,2.73c-1.38,0-2.77,0-4.16,0a1.55,1.55,0,0,1-1.66-1.51,1.62,1.62,0,0,1,1.69-1.62c1.17,0,2.35,0,3.59,0V65.16H89.82c-2.41,0-3.3-.92-3.3-3.36V60.06l-9.78,7.29,9.78,7.3c0-.83,0-1.45,0-2.08a2.73,2.73,0,0,1,3-3.06c.94,0,1.88,0,2.82,0a1.64,1.64,0,0,1,1.79,1.61,1.57,1.57,0,0,1-1.75,1.52c-.83,0-1.66,0-2.7,0,0,.87,0,1.68,0,2.49a2.77,2.77,0,0,1-1.42,2.9A2.81,2.81,0,0,1,85,77.47c-.26-.22-.56-.4-1-.69l-1.73,7.94c-.11.51-.21,1-.33,1.52a6.6,6.6,0,0,1-6.94,5.48H31.8c-3.92,0-6.38-2-7.18-5.87-.57-2.74-1.16-5.49-1.75-8.23-.05-.24-.13-.47-.22-.81l-1.42,1a2.55,2.55,0,0,1-2.75.24,2.45,2.45,0,0,1-1.43-2.36c0-1,0-1.93,0-3H15.83c-4.17,0-8.34,0-12.51,0A3.13,3.13,0,0,1,0,70.74Zm20.2-3.82v1.78c0,2.41-.91,3.32-3.33,3.33H3.19v4.35H4.38c4.3,0,8.6,0,12.9,0a2.68,2.68,0,0,1,2.92,2.91c0,.67,0,1.34,0,2.22L30,67.35Zm31.49,7.78c-2.62,0-5.19-.17-7.73,0-1.9.16-3.3,2.15-3.33,4.1s1.24,4.12,3.18,4.32c2.6.26,5.23.06,7.88.06ZM55,76.56h1.1c2,0,4,.09,5.94-.06a4.31,4.31,0,0,0,4-4.18c.06-2.18-1.37-4.28-3.42-4.46-2.51-.21-5,0-7.64,0Zm-3.32,3.15c-2.45,0-4.81-.09-7.16,0a4.34,4.34,0,0,0-3.92,4c-.16,2.2,1.18,4.42,3.29,4.65a74.8,74.8,0,0,0,7.79.06Zm3.3,8.8c2.3,0,4.51,0,6.72,0a4.35,4.35,0,0,0,4.35-3.94A4.25,4.25,0,0,0,62.4,79.8c-2.43-.22-4.9,0-7.39,0Z"/><path class="cls-1" d="M40.29,20.09c-2.5,0-5,.18-7.48-.06a8.59,8.59,0,0,1-6-3.6c-.72-.94-.68-1.78.06-2.4a1.54,1.54,0,0,1,2.35.39,7.16,7.16,0,0,0,6,2.68c3.51,0,7,0,10.53,0,.31,0,.62,0,.93,0a1.58,1.58,0,1,1-.07,3.15c-2.12,0-4.24,0-6.36,0Z"/><path class="cls-1" d="M66.37,20.28H60.64c-1.5,0-2.24-.52-2.27-1.56s.75-1.62,2.3-1.63c3.54,0,7.09,0,10.63,0a7.26,7.26,0,0,0,6.22-2.74A1.52,1.52,0,0,1,79.8,14a1.57,1.57,0,0,1,.13,2.39,9.7,9.7,0,0,1-7.73,3.87C70.26,20.32,68.31,20.27,66.37,20.28Z"/></g></g></svg>