<svg xmlns="http://www.w3.org/2000/svg" viewBox="0 0 65.31 128.49"><defs><style>.cls-1{fill:#ee3230;}</style></defs><title>Asset 2</title><g id="Layer_2" data-name="Layer 2"><g id="Layer_1-2" data-name="Layer 1"><path class="cls-1" d="M16,128.49c-2.17-1.75-1.81-4.2.78-5.29,4.05-1.71,5.71-5.25,4.26-9.53a41.38,41.38,0,0,1-2.26-16.39,64.14,64.14,0,0,1,.85-6.44,8.36,8.36,0,0,0-.52-5.14c-2.34-4.81-2.44-9.81-1.51-14.93a56.83,56.83,0,0,1,4.12-13.1A2.89,2.89,0,0,0,22,55.89a32.29,32.29,0,0,1-.74-10.32,2.11,2.11,0,0,0-.82-2c-2.32-1.93-4.52-4-5.43-6.8L8.86,40.88c-.12,3.23-.23,6.57-.39,9.91a2.39,2.39,0,0,0,.88,1.79c1,1.14,2.28,2.35,2.55,3.71.58,3-1.72,4.82-4.93,4.38A7,7,0,0,1,5,60.23C3,59.3,1.6,56.07,2.36,53.57A7.36,7.36,0,0,0,2.08,49c-.91-3-2-6.12-2.08-9.21C-.12,34.73,2.86,31,6.69,28a5.13,5.13,0,0,1,1-.7A3.22,3.22,0,0,0,9.45,25.2a8.14,8.14,0,0,1,7.78-5.29,24.62,24.62,0,0,0,8.94-2.18c.68-.28,1-.65.83-1.4-.41-1.64-.75-3.31-1.24-4.92a4.36,4.36,0,0,1-.09-3.24c.41-1,.21-2.22.42-3.31A6,6,0,0,1,32,0c3-.13,5.45.73,6.76,3.66a8.45,8.45,0,0,1,.55,1.92,19.88,19.88,0,0,1,.54,3.64A13.1,13.1,0,0,1,39.11,12c-.35,1.62-.68,3.24-.94,4.87,0,.22.34.63.61.75a22,22,0,0,0,8.77,2.29,8.49,8.49,0,0,1,8.45,6A2.3,2.3,0,0,0,57.06,27a16.42,16.42,0,0,1,8,10.45c.66,2.61,0,5.13-.69,7.64-.16.56-.3,1.13-.48,1.68-.81,2.46-1.89,4.78-1,7.6.4,1.3-.24,3.07-.83,4.45a3.51,3.51,0,0,1-2.36,1.57,24.57,24.57,0,0,1-4.7,0,1.21,1.21,0,0,1-.77-.56c-1.49-2.23-1.36-4,.39-6.07a2.11,2.11,0,0,1,.42-.47c2.34-1.43,1.91-3.72,1.62-5.81-.31-2.25-.63-4.46.18-6.78a12.64,12.64,0,0,1-6.45-4.46c-1.07,3.28-3.31,5.37-5.68,7.34a1.8,1.8,0,0,0-.76,1.7,32.83,32.83,0,0,1-.76,10.82,2.27,2.27,0,0,0,.23,1.41A54.93,54.93,0,0,1,47.75,72c.7,4.63.5,9.16-1.62,13.46a7.91,7.91,0,0,0-.64,5.25,41.72,41.72,0,0,1-1.26,22.48c-.83,2.42-1.17,4.92.49,7.06a11,11,0,0,0,3.64,2.9c2.5,1.28,2.94,3.59.79,5.35h-2c-1.29-.88-2.58-1.76-3.89-2.62a22.16,22.16,0,0,0-2.71-1.67,17.28,17.28,0,0,0-2.51-.73,1.81,1.81,0,0,1-1.45-1.81,5.79,5.79,0,0,1,.35-2.32,8.79,8.79,0,0,0,.28-6,58.73,58.73,0,0,1-2.13-15.7,15.49,15.49,0,0,1,.85-5.12,4.6,4.6,0,0,0-.25-4c-.86-1.8-1.6-3.66-2.34-5.51a21,21,0,0,1-.61-2c-1.17,2.67-2.4,5.42-3.58,8.19a3.66,3.66,0,0,0,.06,3.24A9.23,9.23,0,0,1,30,95.77a53.58,53.58,0,0,1-1.82,16.48c-.63,2.57-.91,5,.15,7.56.92,2.2.09,3.31-2.18,3.93a14.51,14.51,0,0,0-3.67,1.49c-1.57,1-3,2.16-4.48,3.26ZM43.21,60.2a1.22,1.22,0,0,0-.1-.51c-1.23-1.89-1-3.8-.61-5.94a58.19,58.19,0,0,0,.36-8.87,2.18,2.18,0,0,1,.82-1.81,48.24,48.24,0,0,0,4-3.94,5,5,0,0,0,1.5-4.22c0-.24.15-.51.24-.77.28.12.64.17.83.38.54.58,1,1.24,1.5,1.84a11.81,11.81,0,0,0,5.33,3.37c.38.13.94.83.85,1-1,2.43-.44,4.83-.15,7.28.24,2.1.39,4.21-1.74,5.85-1.22.94-2.93,2.34-1.14,4.34-.2,1.4.84,1.28,1.68,1.32A7.15,7.15,0,0,0,59,59.44c.79-.23,1.88-.61,2.15-1.22a7.44,7.44,0,0,0,.51-5.35,6.49,6.49,0,0,1,.16-3.26c.41-1.69,1.1-3.32,1.6-5,.64-2.17,1.23-4.37.7-6.65a15.31,15.31,0,0,0-7.73-10.15,2.89,2.89,0,0,1-1.27-1.39c-1.3-3.6-3.39-5.25-7.26-5.41a26.85,26.85,0,0,1-9.75-2.53,1.39,1.39,0,0,1-1-1.52A13.44,13.44,0,0,1,38.38,11a4,4,0,0,0,.31-2c0-.74-.43-1.48-.41-2.21.07-2.31-1-4.58-2.9-5.26C31.1.05,26.73,1.67,27,7c0,.49.15,1.17-.11,1.45A1.92,1.92,0,0,0,26.82,11a13.12,13.12,0,0,1,1.28,5.8,1.6,1.6,0,0,1-1.17,1.77,27.73,27.73,0,0,1-10.14,2.48,7.07,7.07,0,0,0-6.57,5.11A3.2,3.2,0,0,1,9,27.77a17.69,17.69,0,0,0-7.14,8,8.91,8.91,0,0,0-.78,5.61,54.26,54.26,0,0,0,2.08,7.33,9.27,9.27,0,0,1,.34,5c-.56,3.37.28,6.22,4.42,5.84.17,0,.34,0,.5,0,.87-.13,2.09.2,1.89-1.4,0-.12.15-.28.27-.39a1.34,1.34,0,0,0,.13-2c-.72-1-1.6-1.81-2.38-2.72-.31-.36-.76-.79-.77-1.19,0-1.78.13-3.57.1-5.35a49,49,0,0,0-.38-5.41c-.1-.72-.06-1.13.65-1.34a12.64,12.64,0,0,0,7-5.2,1.45,1.45,0,0,1,.69-.39c.49,1.51.63,3.07,1.42,4.16A36.71,36.71,0,0,0,21.48,43,2.35,2.35,0,0,1,22.34,45a64.72,64.72,0,0,0,.23,8c.3,2.47,1.2,4.89-.95,7.24ZM45.31,66c-4,3.28-7.94,6.47-11.83,9.69a1.32,1.32,0,0,0-.22,1A27.76,27.76,0,0,0,36.7,88.24c.67,1.21,1.2,2.6.51,4a11.51,11.51,0,0,0-1.12,5.58,64.73,64.73,0,0,0,2,14.85,11.86,11.86,0,0,1-.28,7.47c-.69,1.72-.31,2.21,1.45,2.64a9.19,9.19,0,0,1,4.83,2.42,10.29,10.29,0,0,0,3.22,2.07,1.91,1.91,0,0,0,1.77-.24,2.21,2.21,0,0,0,0-1.82,2.27,2.27,0,0,0-1.17-1,9.33,9.33,0,0,1-4.15-3.32c-1.66-2.53-1.52-5.22-.6-7.93A40.12,40.12,0,0,0,44.47,91.1,8.47,8.47,0,0,1,45,85.46C48.16,79.06,47.05,72.64,45.31,66Zm-25.63.58c-.22.93-.42,1.65-.58,2.38-1.24,5.66-1.54,11.22,1.13,16.64a9,9,0,0,1,.45,5.53,64.81,64.81,0,0,0-.87,6.94,39.91,39.91,0,0,0,2.26,15.26,8.25,8.25,0,0,1-.8,7.67,9.53,9.53,0,0,1-4.45,3.33,2,2,0,0,0-1,2.4c.47.91,1.32.83,2.07.48a7.54,7.54,0,0,0,2.54-1.52,10.28,10.28,0,0,1,5.85-3.09c1.24-.26,1.54-.85,1.24-2.11a5.86,5.86,0,0,0-.44-1.3,8.22,8.22,0,0,1-.39-5c.74-4.48,1.64-8.93,2.27-13.43.35-2.55.57-5.25-.61-7.64a5.18,5.18,0,0,1,.3-5.2A27.87,27.87,0,0,0,31.9,77a1.74,1.74,0,0,0-.82-1.75c-3.47-2.62-6.91-5.27-10.36-7.9C20.43,67.08,20.11,66.89,19.68,66.6Zm1.43-4H25.2c2.08,0,4.17,0,6.26,0,.31,0,.62.38.93.58a5.67,5.67,0,0,1-.89.51,3.14,3.14,0,0,1-.87,0c-3.05,0-6.1,0-9.15,0-.7,0-1.23.1-1.06,1.06,1.81,0,3.6,0,5.39,0a6.71,6.71,0,0,1,1.69.52,7.08,7.08,0,0,1-1.65.44c-1.67.06-3.33,0-5,0,3.71,3.13,7.45,6,11.23,8.83a1.37,1.37,0,0,0,1.23-.19c3.26-2.6,6.49-5.25,9.72-7.89,2-1.65,2-1.65,1.12-4.16-.23-.67-.51-1-1.3-1q-10.27,0-20.55,0C21.54,61.36,21.1,61.58,21.11,62.56Z"/><path class="cls-1" d="M25.5,56.7a2.83,2.83,0,0,1-.37-.94c0-3.26-.08-6.53.22-9.77.34-3.58,3.69-6.15,7.42-6.09a7.13,7.13,0,0,1,7.07,6.34c.25,3.24.17,6.51.18,9.77,0,.31-.37.62-.57.93-.18-.33-.5-.66-.51-1,0-3,0-5.93,0-8.9a6.31,6.31,0,0,0-12.13-2.2,9.05,9.05,0,0,0-.49,2.93c-.07,2.51,0,5,0,7.52a6.42,6.42,0,0,1-.3,1.42Z"/><path class="cls-1" d="M32,46.38A3.33,3.33,0,0,1,28.05,46c-.19-.16-.2-.54-.29-.82a3.24,3.24,0,0,1,.88,0c.27.08.48.33.75.43A1.83,1.83,0,0,0,32.09,44a2.76,2.76,0,0,1,.46-.88c.18.28.48.54.52.83.19,1.7,1.41,2.36,3,1.55.18-.1.34-.28.53-.32a4.06,4.06,0,0,1,.78,0c-.07.29-.06.77-.21.82a22,22,0,0,1-2.89.79c-.32.06-.7-.18-1.47-.41a6.71,6.71,0,0,0,.9,2.14,2,2,0,0,0,2.54,0,3.65,3.65,0,0,1,1.18-.18c-.21.36-.33.83-.63,1-1.12.8-2.34.78-3.93,0,.29,1.08.27,2.06.75,2.58.81.87,1.88.63,2.85,0,.22-.15.64,0,1,0-.15.3-.22.69-.46.88a3.18,3.18,0,0,1-3.64.34l-.68,1.1-.86-1a3.29,3.29,0,0,1-3.42-.3c-.29-.22-.4-.69-.59-1,.37,0,.74.07,1.11.14a5.94,5.94,0,0,0,1.88.38c1.27-.21,1.44-.7,1.24-2.8a3.47,3.47,0,0,1-3.87-.38c-.21-.18-.24-.59-.35-.9a3.83,3.83,0,0,1,.9,0c.35.11.65.38,1,.5C31.19,49.29,32.15,48.35,32,46.38Z"/><path class="cls-1" d="M31.42,30.75c0,4.09-1.85,6.64-5.51,7.6a8,8,0,0,1-9.13-3.49A8.93,8.93,0,0,1,16,32.38c-.05-.28.21-.63.33-1,.22.29.6.55.64.86a5.66,5.66,0,0,0,2.71,4.15c3.87,2.5,9.49.69,10.46-3.45a26.83,26.83,0,0,0,.21-3.61,4.22,4.22,0,0,1,.56-1.18,6,6,0,0,1,.46,1.17A9.07,9.07,0,0,1,31.42,30.75Z"/><path class="cls-1" d="M33.79,30.76c0-.63,0-1.26,0-1.88,0-.24.27-.46.42-.68.2.22.54.43.57.67a13,13,0,0,1,0,2.25c-.31,3.87,3,6.6,7,6.42,3.61-.16,5.67-2,6.4-5.36.06-.28.41-.5.63-.75.12.31.37.64.34.94-.21,2.75-1.85,4.47-4.25,5.55-4.32,1.94-9.56-.13-10.83-4.32a17.54,17.54,0,0,1-.4-2.83Z"/><path class="cls-1" d="M59,36.11l-.44.51c-.21-.22-.51-.41-.59-.67-.26-.82-.35-1.71-.66-2.52a6.68,6.68,0,0,0-4.72-4.09c-.37-.1-.65-.47-1-.72a3.26,3.26,0,0,1,1.26-.24A8.15,8.15,0,0,1,59,36.11Z"/><path class="cls-1" d="M6.19,35.92c0-2.89,3.07-6.11,6.25-6.74a7.58,7.58,0,0,1,2.05.15,9.12,9.12,0,0,1-1.8.89A7,7,0,0,0,7.22,35.6c-.08.31-.46.54-.7.81Z"/><path class="cls-1" d="M23.23,36.34c-.53-.75-1.09-1.19-1.06-1.59a1.5,1.5,0,0,1,1-1c.35,0,1,.63,1,1S23.73,35.6,23.23,36.34Z"/><path class="cls-1" d="M40.4,34.76c.73-.52,1.17-1.09,1.55-1s1.06.66,1,1a1.5,1.5,0,0,1-1,1.08C41.6,35.85,41.14,35.28,40.4,34.76Z"/><path class="cls-1" d="M32.51,55.57c.48.62,1,1,1,1.31a1.26,1.26,0,0,1-.85.93,1.27,1.27,0,0,1-.93-.84C31.63,56.65,32.09,56.24,32.51,55.57Z"/><path class="cls-1" d="M44.2,78.71a22.55,22.55,0,0,1-3,9.41c-.16.28-.59.41-.9.61a3.56,3.56,0,0,1,0-1.13c.77-2.31,1.7-4.57,2.36-6.92a9.68,9.68,0,0,0-.56-6.11,3.3,3.3,0,0,1,0-1.21c.31.26.81.47.91.8C43.49,75.66,43.82,77.19,44.2,78.71Z"/><path class="cls-1" d="M38.1,101c.37-1.35.71-2.71,1.14-4,.07-.22.55-.31.84-.46,0,.3.17.64.07.88-1.4,3.15-.74,6.18.48,9.18.24.58.58,1.12.78,1.7a2.83,2.83,0,0,1-.07,1c-.28-.16-.7-.24-.82-.48A19.11,19.11,0,0,1,38.1,101Z"/><path class="cls-1" d="M23.24,73c.14.57.35.93.26,1.15-2.05,4.77-.58,9.11,1.56,13.39.16.33,0,.8,0,1.21-.3-.22-.72-.37-.88-.67-1.93-3.49-3.16-7.17-2.6-11.22a15.79,15.79,0,0,1,.91-3C22.59,73.66,22.84,73.48,23.24,73Z"/><path class="cls-1" d="M26.21,96.24a6.3,6.3,0,0,1,.85,1.11,9.65,9.65,0,0,1,.32,6.61,39.51,39.51,0,0,1-1.74,4.53c-.13.32-.54.5-.83.75,0-.4-.24-.88-.09-1.18a14.3,14.3,0,0,0,1.88-7.3A26.6,26.6,0,0,0,26,97.6c-.07-.38-.15-.75-.22-1.13Z"/></g></g></svg>