<svg xmlns="http://www.w3.org/2000/svg" viewBox="0 0 131.95 127.89"><defs><style>.cls-1{fill:#ee3230;}</style></defs><title>Asset 1</title><g id="Layer_2" data-name="Layer 2"><g id="Layer_1-2" data-name="Layer 1"><path class="cls-1" d="M132,85.31a50.18,50.18,0,0,1-1.1,5.64,8.45,8.45,0,0,0,0,4.83c2,7.73-.9,14.36-8.35,17.92-5.39,2.58-11.07,4.57-16.7,6.62a128.43,128.43,0,0,1-29.06,6.91,87.44,87.44,0,0,1-22.22-.1c-7.06-1-13.88-2.73-20.11-6.27a3.81,3.81,0,0,0-4.6.13,30.87,30.87,0,0,1-20.9,4.09c-1.15-.15-2.28-.38-3.41-.63a2.53,2.53,0,0,1-2.14-3.12,2.43,2.43,0,0,1,3.09-1.76,30.35,30.35,0,0,0,13.51.08,25.37,25.37,0,0,0,9.6-4.47c2.19-1.64,2.62-1.61,4.91-.13a46.71,46.71,0,0,0,17,6.32,87.38,87.38,0,0,0,30.6-.1,147.35,147.35,0,0,0,33.51-10,34.57,34.57,0,0,0,6.84-3.46c3.87-2.78,5-6.69,3.42-11.16a9.21,9.21,0,0,1-.17-6c1.82-6.19,1.36-12.48.22-18.73a88,88,0,0,0-10.31-27.29A239.08,239.08,0,0,0,97,15.91a54.13,54.13,0,0,0-9.16-9.73,6.16,6.16,0,0,0-4.08-1.27A84.77,84.77,0,0,0,65,7.38c-3.79.87-7.51,2.06-11.24,3.16a9.93,9.93,0,0,0-2.1,1c-.35.2-.83.53-.88.86a46.31,46.31,0,0,0-.46,5c0,.25.61.69,1,.75q3.61.57,7.25,1c1.24.14,2.49.16,3.73.22a2.4,2.4,0,0,1,2.2,1.52A2.36,2.36,0,0,1,64,23.46c-1,1.21-2,2.39-3.08,3.59l.11.48c4.21.27,8.42.72,12.63.77a45.2,45.2,0,0,0,13.89-1.54,14.93,14.93,0,0,0,4.3-2.39c1.35-1,2.64-1.13,3.68-.06a2.56,2.56,0,0,1-.12,3.59,12.65,12.65,0,0,1-6.16,3.54,1.73,1.73,0,0,0-1.37,1.29,79.46,79.46,0,0,0-3.35,23.72,39.59,39.59,0,0,0,2.6,13.83A3.46,3.46,0,0,0,88.2,71.8a30.51,30.51,0,0,1,10,13.63c.75,1.87,1.36,3.79,1.95,5.71s-.14,3.18-1.68,3.62c-1.33.37-2.61-.47-3.11-2.17A37.18,37.18,0,0,0,89.81,80.5a19.48,19.48,0,0,0-16-8.36,37.26,37.26,0,0,0-17,4.07c-3.55,1.69-4,1.57-6-1.86A29,29,0,0,0,28.91,59.47c-8.42-1.21-16.47.25-24.39,3A6.79,6.79,0,0,1,2.3,63,2.26,2.26,0,0,1,.09,61.13a2.24,2.24,0,0,1,1.08-2.65,9.12,9.12,0,0,1,1.75-.77,58.66,58.66,0,0,1,23.13-3.49C38.2,55,47.92,60.11,54.5,70.61c.16.26.34.5.54.79,8.32-3.63,16.84-5.58,26.06-3.16a58.22,58.22,0,0,1-1.48-17.66,92,92,0,0,1,2.94-17.66c-.89,0-1.64,0-2.39.1a80.93,80.93,0,0,1-21-1.06c-.34-.07-.67-.16-1-.25-2.72-.7-3.7-2.53-2.66-5.14.33-.82.82-1.58,1.26-2.42-2.08-.35-4.11-.59-6.09-1-4.48-1-6.14-3.52-5.44-8,.15-1,.32-2,.39-3.06a4.76,4.76,0,0,1,2.48-4.12,43.42,43.42,0,0,1,6.53-2.95A96.93,96.93,0,0,1,82,0c1.2,0,2.41,0,3.61.1,3.39.16,5.75,2.21,8,4.42,6.76,6.58,12,14.33,17,22.22,5.23,8.17,10.36,16.39,14.25,25.3a85.53,85.53,0,0,1,6.72,23.39c.11.8.21,1.6.32,2.4Z"/><path class="cls-1" d="M77.3,94a2.53,2.53,0,0,1-3.59,2.44c-2.49-.9-4.93-2-7.47-2.75-10.58-3.2-21.1-3.33-31.47,1A36.32,36.32,0,0,0,24,101.46c-.95.88-2,1.4-3.25.74A2.42,2.42,0,0,1,20.35,98a62.71,62.71,0,0,1,8.82-6.18c12.59-6.7,25.74-7,39.15-2.82,2.45.76,4.82,1.79,7.21,2.72A2.46,2.46,0,0,1,77.3,94Z"/></g></g></svg>