<svg xmlns="http://www.w3.org/2000/svg" viewBox="0 0 144.47 141.68"><defs><style>.cls-1{fill:#ee3230;}</style></defs><title>Asset 4</title><g id="Layer_2" data-name="Layer 2"><g id="Layer_1-2" data-name="Layer 1"><path class="cls-1" d="M29.68,93l-6.85-2.45a17,17,0,0,0,.51,2.59c2,5.7,3.77,11.51,6.19,17a39.9,39.9,0,0,1,3,10.41q1.08,7.32,2.34,14.61a1.67,1.67,0,0,0,1.14,1.1c11.07,0,22.14,0,33.21,0,.09,0,.18-.08.43-.2v-11c0-1.18,0-2.36,0-3.54a2.66,2.66,0,0,1,2.54-2.93,2.63,2.63,0,0,1,2.59,2.88c0,4.35,0,8.7,0,13.06v1.69c.64,0,1.16.09,1.68.09,10.42,0,20.85,0,31.27,0,1.38,0,1.78-.4,2-1.76,1-6.47,2-12.92,3.13-19.37a7.81,7.81,0,0,1,.81-2.24,89.83,89.83,0,0,0,7.69-20.92c.12-.5.2-1,.3-1.55L114.88,93c-.33,1.91-.53,4-1.07,6a18.87,18.87,0,0,1-6.68,10c-1.48,1.19-3,1.21-4,.08s-.88-2.73.63-4.07c3.75-3.36,6-7.36,5.63-12.57a10.67,10.67,0,0,0-.13-1.12c-.43-2.33.58-3.65,3-3.63A11.37,11.37,0,0,0,122,82.77c.48-.64.79-1.41,1.26-2.06a2.46,2.46,0,0,1,4.11-.13c2,3,5,4.48,8.25,5.56a48.12,48.12,0,0,0,6.08,1.48c1.8.35,2.91,1.44,2.75,2.95S143,93,141.16,92.8a33.4,33.4,0,0,1-12.43-4.14c-.32-.17-.67-.31-1.1-.51-.67,2.95-1.08,5.87-2,8.62a149.35,149.35,0,0,1-5.75,15.15,35.53,35.53,0,0,0-2.82,9.8q-1.31,8.5-2.68,17c-.36,2.24-1.21,3-3.47,3H33.53c-2.35,0-3.09-.83-3.5-3.47q-1.71-10.89-3.51-21.75A5.28,5.28,0,0,0,26,114.8a84.12,84.12,0,0,1-8.9-26.23c0-.09-.1-.17-.24-.41-.45.23-.91.45-1.36.69a34,34,0,0,1-12.16,4c-1.79.21-3-.62-3.24-2.12s.9-2.6,2.63-3.06a71.9,71.9,0,0,0,9.61-3A13.55,13.55,0,0,0,16.69,81c1.67-1.87,3.62-2,4.8.19,2.4,4.42,6.06,6.46,11,6.52a2.65,2.65,0,0,1,2.85,3.23c-1,5.22.77,9.49,4.4,13.14.41.42.87.8,1.29,1.21,1.28,1.27,1.41,2.71.38,3.85a2.67,2.67,0,0,1-3.77.11A19.42,19.42,0,0,1,30.38,98C30,96.36,29.91,94.68,29.68,93Z"/><path class="cls-1" d="M54.19,8.22V3.52C54.2.82,55,0,57.78,0H86.63c2.88,0,3.67.79,3.68,3.6,0,1.4,0,2.8,0,4.19A.5.5,0,0,0,90.4,8c2.73.3,5.46.45,8.12.94a29.9,29.9,0,0,1,15.37,7.91,3.61,3.61,0,0,0,3,1.11c6.33-.44,12.42.47,18,3.63a23.8,23.8,0,0,1,8.89,8.45c1.06,1.76.83,3.22-.57,4.09s-2.81.31-3.88-1.37c-3.53-5.55-8.79-8.43-15.12-9.28a56.57,56.57,0,0,0-9.3-.1A3.94,3.94,0,0,1,111.68,22a25.28,25.28,0,0,0-14.84-8.07,33.17,33.17,0,0,0-7.52-.24c-3.18.23-4.16-.48-4.17-3.64V5.43H59.34v4.76c0,2.93-1,3.82-4,3.49A26.53,26.53,0,0,0,35,19.9a16.47,16.47,0,0,0-2.08,2,4.16,4.16,0,0,1-4,1.38c-6.33-.68-12.43.06-17.93,3.62a18.57,18.57,0,0,0-5.94,6c-1,1.64-2.42,2.09-3.77,1.27S-.41,31.9.58,30.27A24.53,24.53,0,0,1,17.46,18.7c3.44-.67,7-.49,10.56-.76a3.52,3.52,0,0,0,2-.62,31.89,31.89,0,0,1,23.21-9C53.5,8.27,53.76,8.24,54.19,8.22Z"/><path class="cls-1" d="M40.16,67c-1.88-.24-2.89-.82-3.12-2.27a2.39,2.39,0,0,1,1.72-2.88c1.52-.51,3.13-.75,4.63-1.31A24.67,24.67,0,0,0,59.07,44.09c.4-1.24.73-2.53,2.23-2.87,2.11-.49,3.64,1.34,3,3.59A29.77,29.77,0,0,1,47.14,64.68,66.53,66.53,0,0,1,40.16,67Z"/><path class="cls-1" d="M107.52,64.28a2.6,2.6,0,0,1-3.14,2.59C93.39,64.61,85.61,58.4,81.26,48a27.38,27.38,0,0,1-1.11-3.35,2.62,2.62,0,0,1,1.6-3.39,2.58,2.58,0,0,1,3.36,1.92,25.64,25.64,0,0,0,6.8,11.66,24.61,24.61,0,0,0,12.58,6.69C106.57,62,107.51,62.8,107.52,64.28Z"/><path class="cls-1" d="M69.67,101.8q0-4.26,0-8.54c0-1.93.93-3,2.52-3.05s2.61,1.08,2.62,3q0,8.53,0,17.07c0,1.81-1,2.86-2.53,2.88s-2.6-1-2.61-2.95C69.66,107.38,69.67,104.59,69.67,101.8Z"/><path class="cls-1" d="M74.82,73.26c0,2.84,0,5.69,0,8.53,0,1.77-1,2.88-2.56,2.89a2.57,2.57,0,0,1-2.58-2.85q0-8.62,0-17.24a2.57,2.57,0,1,1,5.13,0C74.84,67.46,74.82,70.36,74.82,73.26Z"/></g></g></svg>