<svg xmlns="http://www.w3.org/2000/svg" viewBox="0 0 132.98 107.69"><defs><style>.cls-1{fill:#ee3230;}</style></defs><title>Asset 8</title><g id="Layer_2" data-name="Layer 2"><g id="Layer_1-2" data-name="Layer 1"><path class="cls-1" d="M0,58.85A3.57,3.57,0,0,1,3.57,57c2.32.09,4.65,0,7.18,0-.31-.65-.53-1.15-.78-1.63C.94,37.76,7.91,16,22.6,6.06c13-8.77,31-8.25,42.95,3.08l.94.84c.63-.57,1.22-1.12,1.83-1.65A33.34,33.34,0,0,1,93.1.1c15.34,1,28.43,12.21,32.57,28.14a38,38,0,0,1-2.77,27.47c-.19.38-.35.78-.6,1.35,2.66,0,5.19,0,7.72,0a2.7,2.7,0,0,1,2.92,2.21,2.57,2.57,0,0,1-2.73,3c-3.24,0-6.49,0-9.73.05a2.2,2.2,0,0,0-1.58.76c-6.1,9.11-13.74,16.79-22,23.85a224.7,224.7,0,0,1-27.55,19.84,4.49,4.49,0,0,1-5.36,0c-14-8.69-27.22-18.42-38.78-30.26A89,89,0,0,1,14.29,63.17a1.76,1.76,0,0,0-1.69-.88c-3,0-6,0-9,0A3.78,3.78,0,0,1,0,60.67Zm61.4,8c.27-.56.49-1,.7-1.4Q67.51,54.1,72.94,42.77c1.74-3.63,3.49-7.24,5.19-10.88a2.9,2.9,0,0,1,2.58-2,2.8,2.8,0,0,1,2.7,2.07c.06.16.15.31.22.46q5.72,11.77,11.42,23.56c.3.63.52,1.16,1.45,1.15,6.32-.05,12.64,0,19-.06a1.64,1.64,0,0,0,1.18-.69c7.27-12.6,7-25.19-.84-37.34C105,2.33,81.68.39,68.77,15.24c-1.55,1.78-3,1.7-4.69-.13C55,5,41.13,2.21,29.1,8.41,17.33,14.48,12,24.77,11.18,37.67c-.42,6.81,1.93,12.91,5.24,18.7a1.93,1.93,0,0,0,1.45.66c5.15,0,10.31,0,15.46.06a1.9,1.9,0,0,0,1.77-1C38,51.89,41,47.68,43.93,43.46c1.86-2.66,3.92-2.54,5.4.32L60.66,65.5C60.88,65.91,61.11,66.32,61.4,66.84Zm51.54-4.18-.25-.35h-1.41c-5.36,0-10.73-.07-16.1,0a3.88,3.88,0,0,1-4.12-2.54C88,53.14,84.69,46.56,81.49,40c-.2-.4-.43-.78-.72-1.31-.3.57-.51.94-.69,1.32Q77.17,46,74.27,52.13,69.19,62.77,64.1,73.41c-.89,1.85-2.41,2.53-3.84,1.62a4.44,4.44,0,0,1-1.37-1.65Q52.92,62,47,50.64c-.2-.4-.44-.78-.73-1.29-.35.46-.61.79-.85,1.14-2.28,3.26-4.62,6.48-6.82,9.8a4.19,4.19,0,0,1-4,2.05c-4.32-.1-8.65,0-13,0H20.32l-.14.36c1.84,2.23,3.59,4.54,5.53,6.69,11.68,13,25.53,23.28,40.27,32.47a1.56,1.56,0,0,0,1.33,0c1.5-.86,3-1.79,4.41-2.74,12.73-8.36,24.76-17.58,35-28.93C108.91,67.71,110.88,65.14,112.94,62.66Z"/></g></g></svg>