<svg xmlns="http://www.w3.org/2000/svg" viewBox="0 0 129.59 123.21"><defs><style>.cls-1{fill:#ee3230;}</style></defs><title>Asset 6</title><g id="Layer_2" data-name="Layer 2"><g id="Layer_1-2" data-name="Layer 1"><path class="cls-1" d="M64.88,59.17c-.62,2.15-1.1,3.85-1.59,5.54a10.39,10.39,0,0,1-9.9,7.65c-9,.07-18,0-27,0a3.4,3.4,0,0,1-2.21-.91c-2.65-2.64-5.19-5.39-7.75-8.12-1.11-1.19-1.11-2.4-.09-3.33s2.15-.78,3.22.32c2.16,2.23,4.24,4.55,6.45,6.74a3.49,3.49,0,0,0,2.15.92c8.17.06,16.35,0,24.52,0,3.56,0,5.65-1.64,6.62-5.11,1.12-4,2.24-8,3.33-12,.33-1.21.82-2.2,2.25-2.22s2,.93,2.3,2.16c1.1,4.06,2.24,8.1,3.36,12.16a6.23,6.23,0,0,0,6.55,5c8.91,0,17.82,0,26.73,0a3.14,3.14,0,0,0,2-.89c2.1-2.08,4.09-4.26,6.13-6.4,1.37-1.44,2.62-1.65,3.66-.62s.85,2.23-.44,3.59c-2.43,2.56-4.82,5.17-7.34,7.65a3.92,3.92,0,0,1-2.46,1q-14.31.11-28.63,0a10.45,10.45,0,0,1-10.36-8.09C65.91,62.74,65.46,61.2,64.88,59.17Z"/><path class="cls-1" d="M108.29,81.69l-6.35,2.18c-.15,6-3.48,10.47-7.26,14.66a2.15,2.15,0,0,1-3.22.32c-1-.87-.86-2.12.06-3.37,1.76-2.41,3.51-4.84,5.07-7.39a7.22,7.22,0,0,0,.72-5.35c-.31-1.47.34-2.34,1.82-2.79,2.26-.69,4.53-1.35,6.74-2.17a9.16,9.16,0,0,0,4.78-3.45,2,2,0,0,1,2.67-.61,2.13,2.13,0,0,1,1.08,2.69c-.52,1.93-1.09,3.84-1.67,5.75a95.46,95.46,0,0,1-12.58,26.72,6.69,6.69,0,0,0-1.2,4.27c.09,2.42,0,4.85,0,7.27,0,1.71-.83,2.75-2.15,2.78s-2.23-1-2.24-2.84c0-3-.08-6,0-9a6.73,6.73,0,0,1,.93-3.23c4.45-7,8.62-14.08,11.24-22C107.25,84.74,107.73,83.35,108.29,81.69Z"/><path class="cls-1" d="M22.41,81.51a72.36,72.36,0,0,0,5.74,16.42c1.79,3.52,3.62,7,5.37,10.55a5.36,5.36,0,0,1,.58,2.24c.06,3.27,0,6.54,0,9.81,0,1.6-.81,2.61-2.06,2.68s-2.25-1-2.32-2.65a4.42,4.42,0,0,1,0-.63c.8-6.42-.92-12.14-4.2-17.67-4.7-7.93-7.1-16.71-8.61-25.74-.23-1.33,0-2.35,1.28-2.86s2,.13,2.84,1.07a12,12,0,0,0,3.07,2.63,31.47,31.47,0,0,0,5.06,2.17c3.15,1.08,3,1,3,4.35a10,10,0,0,0,1.07,4.68A56.8,56.8,0,0,0,38,95.3c1,1.38,1.25,2.56.3,3.49s-2.33.84-3.56-.54c-3-3.36-6-6.9-6.54-11.48-.33-2.72-1.51-3.78-3.8-4.37A11.62,11.62,0,0,1,22.41,81.51Z"/><path class="cls-1" d="M49.64,2.86C49,5.5,48.2,8.61,47.32,11.7a2.27,2.27,0,0,1-1.2,1.16C40.32,15.6,35.48,19.66,31,24.12a6.44,6.44,0,0,1-4.74,2,39.91,39.91,0,0,0-15,3.15c-3,1.3-5.62,3.07-7.06,6.21a2,2,0,0,1-2.91,1,2.09,2.09,0,0,1-1-2.94,14.61,14.61,0,0,1,6.32-6.86c4.65-2.77,9.82-3.95,15.12-4.65,1.46-.19,2.94-.18,4.4-.38a3.46,3.46,0,0,0,1.79-.78C32.52,16.6,37.29,12.47,43,9.5a2.06,2.06,0,0,0,.78-1.23c.61-2.18,1.11-4.38,1.71-6.56A2,2,0,0,1,47.94.09C49.11.33,49.72,1.13,49.64,2.86Z"/><path class="cls-1" d="M82.05,0a2.39,2.39,0,0,1,2.28,2c.51,2,1,4.1,1.55,6.12a2.39,2.39,0,0,0,1.06,1.35,58.59,58.59,0,0,1,15.24,10.87,4.83,4.83,0,0,0,3.32,1.41,39.69,39.69,0,0,1,16.66,4.32,15.56,15.56,0,0,1,7,7c.73,1.54.44,2.81-.75,3.41s-2.41.11-3.15-1.44c-1.63-3.39-4.63-5.1-7.91-6.39a37,37,0,0,0-12.93-2.58,6.32,6.32,0,0,1-4.61-1.92c-4.77-4.66-10-8.75-16.2-11.35a3.11,3.11,0,0,1-1.54-1.81c-.78-2.61-1.41-5.28-2-7.94C79.67,1.39,80.57.05,82.05,0Z"/><path class="cls-1" d="M64.22,30.49c3.09-4.1,7.63-4.14,11.73-5.14,3.73-.91,7.49-1.68,11.23-2.5,1.63-.36,2.78.24,3.07,1.61s-.47,2.28-2.06,2.64C82.61,28.37,77,29.7,71.42,30.81c-1.69.34-2.63,1.4-3.7,2.46-3.35,3.34-3.41,3.4-6.69-.06a8.82,8.82,0,0,0-5-2.69c-5.15-1-10.26-2.25-15.39-3.41-1.71-.38-2.43-1.32-2.14-2.71s1.44-1.9,3.1-1.53c6,1.33,12,2.62,18,4a6.9,6.9,0,0,1,2.56,1.39A19.64,19.64,0,0,1,64.22,30.49Z"/><path class="cls-1" d="M13.62,115.58c-1.46,1-2.53,3.4-4.76,1.53-1.19-1-.85-1.94,1.54-4.75-.92-1.47-3.66-2.64-1.43-4.78,2-2,3.17.54,4.61,1.55,1.49-.89,2.71-3.65,4.79-1.44s-.57,3.27-1.57,4.69c1.05,1.39,3.45,2.55,1.63,4.58C16.38,119.23,15.11,116.6,13.62,115.58Z"/><path class="cls-1" d="M62.22,102.41c0-2.63,0-5.26,0-7.89,0-1.72.85-2.71,2.19-2.69s2.16,1,2.17,2.6q0,8.2,0,16.42c0,1.63-.87,2.58-2.16,2.61s-2.18-.94-2.2-2.68C62.2,108,62.22,105.2,62.22,102.41Z"/><path class="cls-1" d="M112.3,8.71a2.06,2.06,0,0,1,2.18,2.14,2,2,0,0,1-2,2.14,2.14,2.14,0,1,1-.15-4.28Z"/><path class="cls-1" d="M64.29,115.62a2.14,2.14,0,1,1,.17,4.28,2.14,2.14,0,0,1-.17-4.28Z"/></g></g></svg>