<svg xmlns="http://www.w3.org/2000/svg" viewBox="0 0 67.46 135.22"><defs><style>.cls-1{fill:#ee3230;}</style></defs><title>Asset 7</title><g id="Layer_2" data-name="Layer 2"><g id="Layer_1-2" data-name="Layer 1"><path class="cls-1" d="M61.71,135.22c-3.7-1.09-6.41-3.56-9.19-6.13-1.44-1.34-3.73-1.79-5.67-2.55a21.52,21.52,0,0,0-2.55-.61c-2.49-.64-3.67-2.72-3.08-5.56a17.14,17.14,0,0,1,1.1-3.5,12.53,12.53,0,0,0,.47-8.4,145.91,145.91,0,0,1-4.47-28.32,30.75,30.75,0,0,1,1.24-11.59,4.67,4.67,0,0,1,.55-1.34c1.57-2.17.89-4.37-.23-6.31A52.12,52.12,0,0,1,34,45.61c-.05-.2-.12-.39-.29-1-.51,1.91-.9,3.44-1.32,5a49.46,49.46,0,0,1-4.85,11.35,5.89,5.89,0,0,0-.24,6.33c1.66,2.88,1.79,6.22,1.86,9.47a90.39,90.39,0,0,1-1.71,18.35c-.84,4.57-2,9.08-2.89,13.64a13.66,13.66,0,0,0,.52,8.16,15.47,15.47,0,0,1,1.17,4.68c.2,2.52-1,3.76-3.38,4.43-2.23.62-4.44,1.35-6.64,2.09a3.5,3.5,0,0,0-1.4.94,19.94,19.94,0,0,1-9.11,6.21H3.37C1.82,134.61.45,133.86.09,132a6.07,6.07,0,0,1,3.37-6.38c4.58-1.85,8.14-4.68,9.29-9.79a15.43,15.43,0,0,0-.64-8.57,75.25,75.25,0,0,1-4.2-31.89c.32-3.67.94-7.31,1.61-10.94a14.84,14.84,0,0,0-1.07-9.64C5.08,48.13,4.28,41,4.82,33.75,5.68,22,9.35,11.09,14.26.5a3.59,3.59,0,0,1,.31-.43l1.61.81L13.53,7.11h40.4L51.27.91,53,0c.89,2,1.81,4,2.62,5.93a97.23,97.23,0,0,1,6.5,22.72c1.12,7.83,1.19,15.6-1.74,23.13-.73,1.88-1.72,3.68-2.27,5.6-.83,2.89-.44,5.8.17,8.73a75.39,75.39,0,0,1,1.14,23.22,81.67,81.67,0,0,1-4,17.8c-1.58,4.66-1.6,9.26,1.48,13.44a16,16,0,0,0,7.36,5.15,5.83,5.83,0,0,1,3.23,5.49c0,1.93-.93,3-3.17,3.85a1.4,1.4,0,0,0-.2.16ZM57.65,18c-.4.29-.76.53-1.09.8-6.69,5.45-13.35,10.92-20.07,16.31A3.44,3.44,0,0,0,35,38.74a54.21,54.21,0,0,0,6.57,21.07c1.25,2.19,2.23,4.72.91,7.16a21.14,21.14,0,0,0-2.17,10.57c.07,10.3,2,20.33,4.38,30.3a15.07,15.07,0,0,1-.53,9.8,14.93,14.93,0,0,0-1,3.79c-.22,1.54.4,2.28,1.9,2.66.85.22,1.71.37,2.56.61,3,.84,5.89,1.76,7.88,4.41A6.78,6.78,0,0,0,57.63,131a21.65,21.65,0,0,0,5.14,2.15c2,.43,3-.94,2.55-3a3.68,3.68,0,0,0-2.44-2.92c-9.32-3.67-12.29-11.67-9.51-20.29A82.36,82.36,0,0,0,57.58,87.6a72.77,72.77,0,0,0-1.33-21.49c-1-4.31-.88-8.5,1.12-12.46a32,32,0,0,0,3.3-12.5C61.18,33.29,59.83,25.67,57.65,18ZM9.56,18.9A71.83,71.83,0,0,0,6.72,36.38c-.15,6.13.69,12,3.54,17.63,1.76,3.47,1.86,7.21,1.16,11.06A99.46,99.46,0,0,0,9.75,77.19,74.07,74.07,0,0,0,14,106.85a15.72,15.72,0,0,1-.89,13.38c-2,3.6-5.25,5.71-9,7.22a4,4,0,0,0-2.08,4.44c.36,1.15,2,1.65,3.79,1.15a4.88,4.88,0,0,0,1.46-.57c1.59-1.09,3.41-2,4.63-3.42,2.12-2.47,4.88-3.48,7.8-4.34.88-.26,1.79-.41,2.69-.64,1.5-.39,2.11-1.11,1.86-2.67a18.71,18.71,0,0,0-1.13-4,15.25,15.25,0,0,1-.56-8.81c.56-3,1.41-6,2-9,1.54-8.08,2.89-16.2,2.45-24.46a18.33,18.33,0,0,0-1.49-6.74,8,8,0,0,1-.34-7.06c.77-1.77,1.78-3.42,2.6-5.17A55.35,55.35,0,0,0,32.6,37.35,1.88,1.88,0,0,0,31.87,36C27,32.27,22.18,28.56,17.32,24.84Zm2-1.38-.14.31,22.19,17c.16,0,.22,0,.25-.06Q45.19,25.55,56.55,16.3a1,1,0,0,0,.34-.87c-.67-2.07-1.41-4.11-2.13-6.17H14.4c-1.94,0-2.07.12-2.32,2.35H31.32a3.72,3.72,0,0,1,1.3.07c.34.13.81.59.78.83a1.76,1.76,0,0,1-.81,1c-.26.15-.69,0-1,0H12.69c-1.74,0-1.89.16-1.93,2.09h11a5.45,5.45,0,0,1,1.57.05c.37.12.64.56.95.86a4.22,4.22,0,0,1-1,.95,2.87,2.87,0,0,1-1.18.05Z"/><path class="cls-1" d="M55.11,42c0,6.51-2.27,12.36-5.47,17.9-.22.39-1,.5-1.44.73-.07-.57-.37-1.24-.18-1.71,1.22-3,2.77-5.88,3.79-8.94a23.27,23.27,0,0,0,.4-14.25,16.41,16.41,0,0,0-.91-2.32c-.3-.66-.53-1.29.28-1.67s1.21.21,1.52.83a19.92,19.92,0,0,1,2,8.51C55.12,41.4,55.11,41.71,55.11,42Z"/><path class="cls-1" d="M44.44,83.55a16.11,16.11,0,0,1,1.9-7.9c.21-.37.88-.48,1.34-.7.13.52.54,1.17.36,1.55-2.3,4.88-1.89,9.82-.29,14.73.69,2.11,1.74,4.11,2.64,6.15.29.64.57,1.37-.27,1.65a1.65,1.65,0,0,1-1.39-.7A30.78,30.78,0,0,1,44.44,83.55Z"/><path class="cls-1" d="M15.66,31.65c1.12,0,1.46.75,1,1.68a18.46,18.46,0,0,0-1.78,7.1A29.19,29.19,0,0,0,17.51,54c.73,1.69,1.62,3.31,2.45,4.95.32.64.56,1.37-.25,1.66a1.65,1.65,0,0,1-1.42-.67c-3.5-6.16-6-12.65-5.35-19.88a41.76,41.76,0,0,1,1.85-7.34C14.92,32.25,15.45,31.9,15.66,31.65Z"/><path class="cls-1" d="M24.74,83.47a31.73,31.73,0,0,1-4.38,15c-.2.36-1,.42-1.47.61a4.18,4.18,0,0,1-.15-1.62c1.13-3.16,2.61-6.23,3.45-9.47a15.76,15.76,0,0,0-1.07-11.29c-.32-.64-.54-1.41.31-1.63a1.76,1.76,0,0,1,1.46.81A16.85,16.85,0,0,1,24.74,83.47Z"/></g></g></svg>