<svg xmlns="http://www.w3.org/2000/svg" viewBox="0 0 96.6 88.88"><defs><style>.cls-1{fill:#ee3230;}</style></defs><title>Asset 5</title><g id="Layer_2" data-name="Layer 2"><g id="Layer_1-2" data-name="Layer 1"><path class="cls-1" d="M69.5,82.88l8.12.75c2.27.21,4.55.41,6.82.65,1.13.12,1.67.79,1.54,1.78a1.6,1.6,0,0,1-1.92,1.3q-7.77-.73-15.55-1.45a4,4,0,0,0-1.42.15c-3.07.85-6.12,1.72-9.17,2.6-.87.25-1.72.44-2.34-.44s-.16-1.55.29-2.28Q63,74.62,70,63.25a4.58,4.58,0,0,0,.61-2.18,64.35,64.35,0,0,0-.14-6.92c-.18.33-.38.66-.55,1Q62,70.44,54.05,85.73a2.68,2.68,0,0,1-2.83,1.69c-1.94-.08-3.9-.07-5.85,0a2.5,2.5,0,0,1-2.57-1.55Q34.86,70.51,26.87,55.19a2.83,2.83,0,0,0-.75-1c0,2.61,0,5.22,0,7.82a2.54,2.54,0,0,0,.5,1.1l13.87,22.2c.18.28.35.58.54.86a1.67,1.67,0,0,1,.11,2.08,1.71,1.71,0,0,1-2,.47A54.48,54.48,0,0,1,33.32,87c-3.35-1.35-6.73-1-10.16-.66s-7,.68-10.51,1A1.57,1.57,0,0,1,10.79,86a1.46,1.46,0,0,1,1.49-1.71c4.7-.45,9.4-.88,14.1-1.32l.89-.08L24.53,71c-.6,1-1.07,1.79-1.61,2.56a17,17,0,0,1-6.66,5.56c-4.53,2.13-9.08,4.23-13.62,6.36a1.72,1.72,0,0,1-2.08,0c-.94-.8-.67-2.1.6-2.7l9.66-4.51c1.46-.68,2.95-1.3,4.37-2,5-2.66,7.69-6.8,7.79-12.47.09-5.21,0-10.42,0-15.64a1.3,1.3,0,0,0-.18-.83,7.07,7.07,0,0,1-1.65-4.7l-1.42-.29a4.83,4.83,0,0,1-3.52-2.7,46.14,46.14,0,0,1-2.81-5.74,29.11,29.11,0,0,1-1.17-6A27.82,27.82,0,0,1,12.2,23c.23-3.6,2.68-5.52,6.26-5l.77.13c-.14-1.85-.27-3.64-.4-5.42-.12-1.61-.27-3.21-.35-4.82C18.41,6.63,18.94,6,19.91,6s1.57.58,1.66,1.73c.25,3,.47,6,.71,9l1.26,15.9c.26,3.29.55,6.57.75,9.86.18,2.88,1.22,3.71,4.09,3.44,5.55-.53,11.11-.95,16.67-1.42l1-.1c0-1,0-1.88,0-2.8,0-1.21.55-1.8,1.54-1.8s1.5.63,1.56,1.81c0,.45,0,.9,0,1.35v1.56c1.34,0,2.58-.08,3.8,0,5.26.44,10.51.9,15.76,1.44,2.13.22,3.47-.64,3.66-2.75.28-3.13.48-6.27.73-9.41.49-6.2,1-12.39,1.49-18.59q.28-3.64.54-7.29c.06-.83.26-1.58,1.16-1.86a1.48,1.48,0,0,1,2,1.61c-.15,2.62-.38,5.23-.58,7.85-.07.92-.12,1.85-.18,2.87.5-.15.89-.29,1.28-.37A4.89,4.89,0,0,1,85,22.35c.5,4.75.19,9.41-2.17,13.74-.54,1-1,2-1.5,3a5.36,5.36,0,0,1-5.14,3.34c-.18,0-.36,0-.61.05a7.21,7.21,0,0,1-1.68,4.79c-.19.2-.15.64-.15,1,0,5.06,0,10.12,0,15.18a13.69,13.69,0,0,0,8.27,13c4.34,2.12,8.74,4.09,13.11,6.13.37.18.9.31,1,.62a2.87,2.87,0,0,1,.35,1.8,1.31,1.31,0,0,1-1.74.82,6.31,6.31,0,0,1-.93-.39l-13-6.08a17.27,17.27,0,0,1-8.21-7.69,6.25,6.25,0,0,0-.4-.62C71.32,75,70.42,78.91,69.5,82.88ZM37.25,47.94c-.06.2-.09.24-.08.27q4.71,17.72,9.41,35.41c.06.21.18.56.29.57a13.39,13.39,0,0,0,2.9,0c.27,0,.49-.83.62-1.3Q54,69.47,57.55,56L59.68,48A141.15,141.15,0,0,0,37.25,47.94Zm38.6-8.65c1.1.07,2-.13,2.43-1,1.43-3,3.42-5.75,3.54-9.23.08-2.12.22-4.25.14-6.37A1.72,1.72,0,0,0,79.86,21c-1.38.1-2.63,1-2.71,2-.19,2.32-.4,4.63-.59,6.94C76.32,33,76.09,36.09,75.85,39.29ZM33.94,48.23l-6.68,1c2.91,5.61,5.73,11,8.68,16.69.28-1.91.53-3.52.75-5.13A4.78,4.78,0,0,0,36.77,59C35.88,55.44,34.92,51.92,33.94,48.23ZM60.83,65.89c3-5.72,5.8-11.16,8.7-16.73l-6.69-.92c-1,3.72-2,7.35-2.93,11a1.48,1.48,0,0,0,0,.55C60.23,61.7,60.51,63.62,60.83,65.89Zm-39.9-26.6c-.45-5.75-.89-11.41-1.34-17.07,0-.14,0-.38-.1-.4a10,10,0,0,0-2.71-.74c-.93,0-1.44.78-1.45,1.69a48.08,48.08,0,0,0,.13,5.37,19,19,0,0,0,.94,4.68c.65,1.78,1.67,3.42,2.49,5.13A2.2,2.2,0,0,0,20.93,39.29ZM28,71.18a2.13,2.13,0,0,0-.09.41q1.25,5.52,2.51,11a.74.74,0,0,0,.38.49c1.79.54,3.6,1,5.67,1.61ZM60.31,84.72c2-.58,3.84-1.06,5.6-1.61.23-.07.42-.48.49-.76C67,80.1,67.46,77.85,68,75.6c.32-1.39.64-2.79,1-4.18l-.25-.09C66,75.71,63.21,80.09,60.31,84.72ZM39.1,67.62h-.31c-.08,1.09-.49,2.29-.17,3.25A34.79,34.79,0,0,0,41,75.63l.19-.07Zm16.47,7.94.18.07c.68-1.28,1.27-2.61,2-3.84.91-1.44.23-2.77-.12-4.17Z"/><path class="cls-1" d="M47.66,28.27c.73-.95,1.67-.9,2.72-.6,1.65.46,3.33.84,5,1.28,1.14.3,1.65,1,1.43,1.9s-1,1.38-2.19,1.1c-1.42-.34-2.82-.73-4.25-1a1.67,1.67,0,0,0-1.24.33c-1.26,1.08-1.74,1.08-3,0A1.81,1.81,0,0,0,44.8,31c-1.39.26-2.76.64-4.14,1-1.17.28-2-.11-2.2-1.06s.27-1.63,1.39-1.92c1.7-.45,3.4-.88,5.1-1.31C46.38,27.29,46.45,27.32,47.66,28.27Z"/><path class="cls-1" d="M53.76,17.49c0,1.69-.16,1.93-1.79,2.48-4.53,1.51-4.53,1.51-9.07-.13a2.8,2.8,0,0,1-1-4.09,1.82,1.82,0,0,1,1.47-.47,1.62,1.62,0,0,1,1.12,1c.08.87.63,1,1.22,1.19a4.2,4.2,0,0,0,3.63.11c.7-.34,1.34-.49,1.57-1.44a1.78,1.78,0,0,1,1.52-.89c.5.05,1,.73,1.34,1.22C53.89,16.72,53.76,17.15,53.76,17.49Z"/><path class="cls-1" d="M87.63,3.87c-.78-1-2.37-1.79-1.1-3.34.69-.83,1.42-.58,3.34,1C90.9.94,91.8-1,93.26.62,94.52,2,93,2.84,92.16,3.82c.67,1.05,2.53,2,1,3.41-1.38,1.28-2.23-.32-3.21-1.08-1.06.64-2,2.53-3.42.95C85.22,5.71,86.84,4.88,87.63,3.87Z"/><path class="cls-1" d="M10.79,59.69a1.61,1.61,0,0,1-1.57,1.57,1.55,1.55,0,0,1-1.53-1.59,1.44,1.44,0,0,1,1.49-1.48A1.55,1.55,0,0,1,10.79,59.69Z"/><path class="cls-1" d="M48.36,59.75c-2.41.61-3.81-.59-4.84-2.59-.48-.93-1.17-1.74-1.72-2.63a1.52,1.52,0,0,1,.37-2.26,1.56,1.56,0,0,1,2.22.58c.63.88,1.21,1.79,1.81,2.7a2.61,2.61,0,0,0,4.34,0c.6-.9,1.19-1.81,1.81-2.7a1.58,1.58,0,0,1,2.3-.58,1.52,1.52,0,0,1,.29,2.27,49.15,49.15,0,0,1-2.82,4.17,3.51,3.51,0,0,1-1.86,1A7.52,7.52,0,0,1,48.36,59.75Z"/></g></g></svg>